<svg xmlns="http://www.w3.org/2000/svg" viewBox="0 0 900 1200">
  <defs>
    <linearGradient id="sea" x1="0" y1="0" x2="0" y2="1"><stop offset="0" stop-color="#8fdcff"/><stop offset=".48" stop-color="#4dbce8"/><stop offset="1" stop-color="#1678b6"/></linearGradient>
    <radialGradient id="land" cx="46%" cy="40%" r="68%"><stop offset="0" stop-color="#d8f2a6"/><stop offset=".55" stop-color="#87c96c"/><stop offset="1" stop-color="#3f8c58"/></radialGradient>
    <linearGradient id="beach" x1="0" y1="0" x2="1" y2="1"><stop stop-color="#fff2bc"/><stop offset="1" stop-color="#e5c47d"/></linearGradient>
    <linearGradient id="river" x1="0" y1="0" x2="1" y2="1"><stop stop-color="#d9fbff"/><stop offset="1" stop-color="#3ea8d4"/></linearGradient>
    <filter id="shadow"><feDropShadow dx="0" dy="8" stdDeviation="10" flood-color="#134b6d" flood-opacity=".32"/></filter>
    <filter id="soft"><feGaussianBlur stdDeviation="6"/></filter>
  </defs>
  <rect width="900" height="1200" fill="url(#sea)"/>
  <g opacity=".28" fill="none" stroke="#fff" stroke-width="6">
    <path d="M20 150 C160 110 240 190 360 150 S620 100 880 145"/>
    <path d="M-30 940 C160 900 230 1010 420 960 S690 900 930 965"/>
    <path d="M20 1030 C190 980 300 1080 500 1030 S720 990 900 1040"/>
  </g>
  <g filter="url(#shadow)">
    <path d="M408 74 C564 48 696 119 779 245 C842 340 833 469 790 566 C755 647 772 733 715 831 C647 949 516 1065 366 1087 C242 1105 127 1034 93 916 C57 789 98 676 68 567 C36 449 70 327 153 223 C216 144 310 92 408 74Z" fill="url(#beach)"/>
    <path d="M410 102 C546 79 667 138 739 250 C792 332 787 449 750 541 C718 620 730 715 678 801 C617 905 505 1002 371 1022 C260 1037 164 973 135 874 C103 765 141 661 113 566 C84 462 111 351 184 260 C239 191 323 121 410 102Z" fill="url(#land)"/>
  </g>
  <!-- mountain range -->
  <g>
    <path d="M276 260 L372 126 L447 250 Z" fill="#4d845e"/><path d="M321 230 L372 126 L403 202 L381 190 L359 208 L344 191Z" fill="#eaf5e6"/>
    <path d="M396 262 L500 105 L586 267 Z" fill="#3d7757"/><path d="M450 207 L500 105 L543 190 L520 178 L501 197 L480 178Z" fill="#f2f7ed"/>
    <path d="M533 312 L619 166 L700 325 Z" fill="#477f58"/><path d="M578 251 L619 166 L655 235 L636 226 L620 244 L602 226Z" fill="#eef6ea"/>
  </g>
  <!-- river -->
  <path d="M506 196 C466 273 477 342 426 414 C388 468 382 548 420 610 C459 674 448 740 405 810 C369 868 357 929 368 1006" fill="none" stroke="#e8fbff" stroke-width="30" stroke-linecap="round" opacity=".92"/>
  <path d="M506 196 C466 273 477 342 426 414 C388 468 382 548 420 610 C459 674 448 740 405 810 C369 868 357 929 368 1006" fill="none" stroke="url(#river)" stroke-width="19" stroke-linecap="round"/>
  <!-- forest clusters -->
  <g fill="#2f774e" stroke="#8dd582" stroke-width="2">
    <g transform="translate(190 330)"><circle cx="0" cy="0" r="32"/><circle cx="42" cy="18" r="28"/><circle cx="24" cy="-32" r="30"/><circle cx="-30" cy="20" r="26"/></g>
    <g transform="translate(620 390)"><circle cx="0" cy="0" r="35"/><circle cx="45" cy="20" r="29"/><circle cx="22" cy="-36" r="32"/><circle cx="-36" cy="22" r="27"/></g>
    <g transform="translate(250 690)"><circle cx="0" cy="0" r="36"/><circle cx="50" cy="23" r="31"/><circle cx="22" cy="-40" r="34"/><circle cx="-38" cy="27" r="29"/></g>
    <g transform="translate(580 720)"><circle cx="0" cy="0" r="40"/><circle cx="50" cy="25" r="34"/><circle cx="24" cy="-42" r="36"/><circle cx="-42" cy="28" r="32"/></g>
  </g>
  <!-- palm/beach details -->
  <g stroke="#6c4c2c" stroke-width="8" stroke-linecap="round" fill="none">
    <path d="M170 826 Q185 765 200 726"/><path d="M690 690 Q705 628 725 592"/>
  </g>
  <g fill="#2d8b55"><path d="M199 726 q-58 -12 -70 25 q45 -16 70 -10 q-30 -42 -67 -39 q45 24 67 39 q8 -49 44 -62 q-28 38 -31 67 q46 -32 74 -4 q-52 -6 -74 9Z"/><path d="M724 592 q-54 -8 -68 27 q43 -16 68 -11 q-29 -38 -64 -35 q40 21 64 36 q8 -45 42 -57 q-26 35 -29 62 q43 -30 69 -5 q-49 -5 -69 9Z"/></g>
  <!-- cave -->
  <path d="M607 515 Q641 462 683 512 L702 566 L582 567Z" fill="#55666c"/><ellipse cx="642" cy="548" rx="28" ry="33" fill="#26363e"/>
  <!-- wreck -->
  <g transform="translate(170 535) rotate(-18)"><path d="M0 0 h118 l35 18 -37 14 h-116z" fill="#d7dee3" stroke="#66747c" stroke-width="5"/><path d="M54 -30 h17 l15 30 h-37z" fill="#c7d2d9" stroke="#66747c" stroke-width="4"/><path d="M72 32 h15 l-4 34 h-20z" fill="#a7bac3"/></g>
  <!-- trail -->
  <path d="M152 869 C216 798 290 776 367 739 C468 691 560 624 680 543" fill="none" stroke="#d6b879" stroke-width="12" stroke-linecap="round" stroke-dasharray="4 17" opacity=".9"/>
  <!-- camp clearing -->
  <ellipse cx="470" cy="654" rx="85" ry="55" fill="#b8db83" opacity=".8"/><path d="M454 661 l25 -38 l25 38z" fill="#a56f3b"/><path d="M459 661 h40 v33 h-40z" fill="#d9a759"/>
  <!-- marsh -->
  <g opacity=".75"><ellipse cx="330" cy="880" rx="105" ry="65" fill="#568f69"/><ellipse cx="330" cy="880" rx="70" ry="37" fill="#4ba5a4"/><path d="M265 900 q20 -65 30 0 M315 912 q15 -75 25 0 M365 905 q18 -62 25 0" stroke="#366d4c" stroke-width="8" fill="none"/></g>
  <!-- contour highlights -->
  <g fill="none" stroke="#f4ffd7" stroke-width="5" opacity=".28"><path d="M230 455 C330 365 562 352 683 443"/><path d="M189 583 C291 498 584 490 719 570"/><path d="M171 745 C306 667 541 668 690 751"/></g>
  <!-- cloud shadows -->
  <g opacity=".12" fill="#173e5d" filter="url(#soft)"><ellipse cx="196" cy="218" rx="110" ry="45"/><ellipse cx="690" cy="278" rx="126" ry="52"/></g>
  <!-- sparkles -->
  <g fill="#fff" opacity=".75"><circle cx="72" cy="280" r="5"/><circle cx="820" cy="624" r="4"/><circle cx="748" cy="988" r="6"/><circle cx="102" cy="1040" r="4"/></g>
</svg>
